# xmcd
#
# Track frame offsets: 
#        300
#        17363
#        34896
#        56215
#        68701
#        91630
#        113257
#        128207
#
# Disc length: 1945 seconds
#
# Revision: 0
# Processed by: cddbd v1.5.2PL0 Copyright (c) Steve Scherf et al.
# Submitted via: ExactAudioCopy v1.0b1
#
DISCID=5b079508
DTITLE=A.C. Reed and His Spark Plugs - Take These Blues And Shove Em
DYEAR=1987
DGENRE=Soul Blues
TTITLE0=Things That Get Me Off
TTITLE1=I Stay Mad
TTITLE2=I Got the Blues
TTITLE3=I'm a Jealous Man
TTITLE4=I'm Fed up With This Music
TTITLE5=My Baby Is Fine
TTITLE6=Howlin' for My Darlin'
TTITLE7=Lotta Lovin'
EXTD=
EXTT0=
EXTT1=
EXTT2=
EXTT3=
EXTT4=
EXTT5=
EXTT6=
EXTT7=
PLAYORDER=
